<?xml version="1.0" standalone="no"?><!DOCTYPE svg PUBLIC "-//W3C//DTD SVG 1.1//EN" "http://www.w3.org/Graphics/SVG/1.1/DTD/svg11.dtd"><svg t="1581755239711" class="icon" viewBox="0 0 1024 1024" version="1.1" xmlns="http://www.w3.org/2000/svg" p-id="2102" xmlns:xlink="http://www.w3.org/1999/xlink" width="512" height="512"><defs><style type="text/css"></style></defs><path d="M391.967328 609.721605c-18.145175-18.801025-34.104184-40.662681-67.333903-39.350982-63.398804 2.623399-127.016225 1.311699-190.41503 0.437234C111.482272 570.370623 90.713698 575.398804 91.588165 599.446627s22.080273 28.857387 44.379163 28.420154c38.476516-0.874466 77.171648-0.218617 115.86678-0.218617v-0.437233c42.411614 0 84.604611 0.218617 127.016226 0 11.368061 0 27.982921-1.748933 13.116994-17.489326M132.688079 404.440649c40.006832-0.218617 80.23228-3.497865 119.583262 0.874466 48.532878 5.246798 83.948762-11.149445 115.866781-57.058924-82.637062 0-159.371477 0.437233-236.105892-0.218616-20.98719-0.218617-40.662681 3.279249-39.788216 27.108454S111.700889 404.440649 132.688079 404.440649m-11.586678 106.684885c24.922289-0.874466 49.844577-0.218617 74.766866-0.218617 22.517506 0 45.035013 1.093083 67.333903-0.437233 11.368061-0.874466 30.387703 8.744663 31.043552-14.865927 0.218617-17.052092-4.372331-34.541418-23.829206-36.946199-51.812126-6.121264-104.280102-6.777114-156.310845 0.437233-12.461144 1.748933-26.889838 12.023911-22.517506 29.076003 3.497865 13.116994 12.461144 23.391973 29.513236 22.736123" fill="#000000" p-id="2103"></path><path d="M929.545466 387.82579c-18.801025-42.630231-54.654142-22.517506-84.604611-24.266439s-57.277541 30.606319-81.325363 9.400512c-20.768574-18.363792-32.792485-48.970111-42.192998-76.297182-12.242528-35.197267-40.662681-60.119556-63.180188-97.065755 80.013664 30.824936 128.109308 2.186166 151.282665-35.634501 26.889838-43.723313 19.456874-101.000854-16.833476-134.449188s-92.474808-39.132365-133.356106-12.242528c-52.467976 34.322801-59.900939 78.264731-24.485055 165.492741-56.840307-17.926558-103.842869-44.816396-153.906063-64.710504-19.894108-7.870196-38.913749-27.545687-62.087106-17.926558-61.212639 25.140905-122.425278 50.93766-182.1076 79.795047C200.021982 197.629377 192.151785 222.988898 207.673562 251.409052c12.679761 23.173356 44.59778 30.387703 76.078565 16.833476 26.889838-11.805295 53.998292-23.391973 79.795047-37.383433 43.28608-23.173356 82.637062-23.610589 124.83006 5.902647 27.545687 19.019641 23.610589 30.824936 3.279248 50.063194-46.128096 43.723313-95.098207 84.385995-133.574722 135.542272-28.201537 37.60205-26.889838 76.297182 6.99573 108.652433 41.537148 39.788215 85.041845 77.608881 127.453459 116.741247 13.116994 12.242528 24.485056 24.485056-6.121264 30.169086-41.318531 7.65158-81.981213 18.801025-123.081128 27.108455-29.95047 6.121264-54.654142 34.104184-49.407344 58.58924 6.121264 28.857387 41.974381 47.439795 72.799317 40.225448 81.325363-19.238258 162.650726-38.257899 244.631939-55.309991 41.974381-8.744663 61.431255-50.719044 36.29035-84.385995s-48.751494-61.431255-71.487618-93.349274c-53.123826-74.766866-52.905209-74.985482 14.210077-140.570453 37.820666-36.727583 37.383433-36.508967 66.022203 11.368061 12.461144 20.768574 23.173356 46.128096 53.998293 43.723314 60.556789-4.809564 119.364646-20.549957 177.735269-36.071734 22.080273-6.121264 30.824936-39.569599 21.424423-61.431255M623.700889 763.846285c-29.29462 21.64304-70.175918 9.400512-103.624253 28.420154a71.269001 71.269001 0 0 0-24.266439 21.64304c-29.076003 43.94193-55.747225 89.414176-84.385995 133.574723-17.052092 26.015371-10.493595 48.751494 10.930829 64.710503s50.719044 16.833476 69.082835-8.088813c51.59351-69.738685 101.87532-140.789069 152.15713-211.620836 13.99146-19.675491 1.748933-26.015371-19.894107-28.638771" fill="#000000" p-id="2104"></path></svg>